<?xml version="1.0"?>
<svg version="1.1" xmlns="http://www.w3.org/2000/svg" width="300" height="70" style=""><path fill="#d9821e" d="M34.16,55.64c0,0.72-0.36,0.96-0.96,0.96l-14.24,0c-0.72,0-1.04-0.24-1.04-1.12l0-25.56c0-0.64,0.32-1,0.96-1l3.2,0c0.72,0,1,0.28,1,1.04l0,22.36l10.12,0c0.68,0,0.96,0.32,0.96,0.92l0,2.4z M45.02,32.12c0,1.56-1.36,2.52-2.68,2.52s-2.72-0.88-2.72-2.48s1.32-2.56,2.72-2.56c1.36,0,2.68,0.92,2.68,2.52z M44.78,55.6c0,0.72-0.32,1-1,1l-2.8,0c-0.72,0-1.04-0.28-1.04-1l0-17.48c0-0.68,0.4-0.92,1.04-0.92l2.8,0c0.64,0,1,0.2,1,0.92l0,17.48z M70.72,46.92c0,5.52-2.84,10.16-8.8,10.16c-1.8,0-3.96-1.04-5.08-2.28l-0.16,1.32c-0.04,0.36-0.36,0.48-0.88,0.48l-2.4,0c-0.68,0-0.96-0.32-0.96-1l0-26.08c0-0.64,0.16-1,0.8-1.08l2.96-0.4c0.16-0.04,0.28-0.04,0.4-0.04c0.4,0,0.68,0.16,0.68,0.8l0,9.84c1.28-1.12,3.2-1.96,5.28-1.96c2.2,0,3.84,0.72,5.12,1.88c2.12,1.88,3.04,5,3.04,8.36z M65.72,46.96c0-3.24-1-6.2-4.32-6.2c-1.48,0-3.04,0.8-4.12,1.8l0,8.56c0.96,1.08,2.44,1.96,3.92,1.96c3.48,0,4.52-3,4.52-6.12z M87.98,37.36c0,0.12,0,0.24-0.04,0.36l-0.44,2.84c-0.04,0.36-0.24,0.52-0.56,0.52l-0.16,0c-0.32-0.08-0.72-0.12-1.08-0.12c-1.36,0-2.84,0.72-3.84,1.92l0,12.72c0,0.64-0.28,1-0.96,1l-2.92,0c-0.64,0-0.96-0.32-0.96-1l0-12.48l0-4.92c0-0.8,0.4-1,1-1l2.56,0c0.64,0,1,0.2,1,0.76l0.04,1.28c1.24-1.56,2.6-2.56,4.84-2.56c0.32,0,0.76,0.08,1.12,0.16c0.28,0.08,0.4,0.2,0.4,0.52z M112.04,55.84c0,0.48-0.32,0.76-0.8,0.76l-1.92,0c-2.08,0-3-1-3.28-2.36l-0.08,0c-1,1.48-3.6,2.84-5.8,2.84c-5.64,0-8.2-4.64-8.2-9.84c0-6.92,4.16-10.56,8.64-10.56c2.12,0,4.12,0.96,5.12,2.32l0.08-1.08c0.04-0.44,0.36-0.72,0.84-0.72l2.8,0c0.52,0,0.84,0.28,0.84,0.88l0,13.88c0,0.56,0.08,0.96,0.24,1.16c0.12,0.12,0.28,0.16,0.48,0.16l0.32,0c0.48,0,0.72,0.16,0.72,0.68l0,1.88z M105.44,50.4l0-7.72c-0.8-1.16-2.44-2.04-3.96-2.04c-2.44,0-4.52,2.08-4.52,6.28c0,3.36,1.28,6.2,4.24,6.2c1.96,0,3.64-1.48,4.24-2.72z M128.86,37.36c0,0.12,0,0.24-0.04,0.36l-0.44,2.84c-0.04,0.36-0.24,0.52-0.56,0.52l-0.16,0c-0.32-0.08-0.72-0.12-1.08-0.12c-1.36,0-2.84,0.72-3.84,1.92l0,12.72c0,0.64-0.28,1-0.96,1l-2.92,0c-0.64,0-0.96-0.32-0.96-1l0-12.48l0-4.92c0-0.8,0.4-1,1-1l2.56,0c0.64,0,1,0.2,1,0.76l0.04,1.28c1.24-1.56,2.6-2.56,4.84-2.56c0.32,0,0.76,0.08,1.12,0.16c0.28,0.08,0.4,0.2,0.4,0.52z M151.6,37.76c0,0.12-0.04,0.24-0.08,0.4l-7.88,20.72c-1.8,4.76-4.04,6.44-8.84,6.44c-0.76,0-1.44-0.04-2.12-0.2c-0.44-0.08-0.6-0.32-0.6-0.68c0-0.12,0.04-0.2,0.04-0.36l0.28-2.08c0.08-0.52,0.28-0.72,0.72-0.72l0.24,0c0.48,0.04,0.96,0.12,1.36,0.12c2.48,0,3.52-0.88,4.32-2.76l0.76-1.8l-7.28-18.76c-0.04-0.12-0.08-0.2-0.08-0.32c0-0.32,0.24-0.56,0.6-0.56l3.84,0c0.56,0,0.84,0.28,1,0.68l4.44,13.24l4.2-13c0.2-0.64,0.52-0.92,1.2-0.92l3.24,0c0.4,0,0.64,0.24,0.64,0.56z"/><path fill="#080707" d="M191.56,48.52c0,5.56-4.52,8.56-9.72,8.56c-2.4,0-5.24-0.44-7.64-1.28c-0.52-0.2-0.68-0.44-0.68-0.76c0-0.16,0-0.32,0.08-0.52l0.84-2.6c0.12-0.4,0.32-0.64,0.72-0.64c0.16,0,0.36,0.04,0.6,0.12c1.88,0.68,3.96,1.2,5.96,1.2c2.16,0,4.6-1.04,4.6-3.56c0-1.84-1.36-2.84-2.92-3.6l-5.2-2.6c-2.84-1.4-4.72-3.76-4.72-6.88c0-4.88,4.8-7.56,9.24-7.56c2.64,0,4.84,0.4,7.16,1.4c0.52,0.24,0.8,0.48,0.8,0.8c0,0.16-0.04,0.32-0.12,0.52l-0.96,2.44c-0.16,0.44-0.4,0.6-0.68,0.6c-0.2,0-0.4-0.08-0.64-0.16c-1.64-0.68-3.68-1.24-5.28-1.24c-1.88,0-4.04,0.8-4.04,3.04c0,1.64,1.52,2.6,2.84,3.24l4.44,2.16c3.16,1.52,5.32,3.64,5.32,7.32z M215.54,55.8c0,0.6-0.12,0.8-0.64,0.8l-3.52,0c-0.56,0-0.68-0.16-0.68-0.8l0-11.12c0-2.16-0.6-3.76-3-3.76c-1.56,0-3.56,0.84-4.8,1.92l0,12.96c0,0.6-0.16,0.8-0.76,0.8l-3.44,0c-0.48,0-0.64-0.2-0.64-0.72l0-26.44c0-0.72,0.32-0.92,0.88-1l2.76-0.36c0.16-0.04,0.36-0.04,0.52-0.04c0.44,0,0.68,0.2,0.68,0.76l0,10.04c1.68-1.4,4.2-2.16,6.32-2.16c4.48,0,6.32,2.84,6.32,7.16l0,11.96z M241.08,46.88c0,5.76-3.52,10.2-9.76,10.2c-6.52,0-9.52-4.4-9.52-10.24c0-5.76,3.52-10.16,9.76-10.16c6.52,0,9.52,4.32,9.52,10.2z M236.08,46.88c0-3.28-1.04-6.4-4.56-6.4c-3.56,0-4.72,3.08-4.72,6.28c0,3.28,1,6.52,4.56,6.52c3.52,0,4.72-3.12,4.72-6.4z M265.74,46.64c0,3.04-0.92,5.8-2.6,7.76c-1.48,1.68-3.56,2.72-6.16,2.72c-1.84,0-3.68-0.68-4.84-1.88l0,8.96c0,0.8-0.36,1.04-1.04,1.04l-2.8,0c-0.64,0-0.96-0.36-0.96-1.04l0-26.08c0-0.68,0.32-0.92,0.96-0.92l2.4,0c0.68,0,1.04,0.16,1.08,0.76l0.04,1.08c1.16-1.32,3.44-2.32,5.6-2.32c2.64,0,4.48,1,5.8,2.44c1.72,1.88,2.52,4.68,2.52,7.48z M260.7,46.88c0-1.88-0.36-3.52-1.16-4.64c-0.76-1.08-1.88-1.64-3.28-1.64c-1.48,0-3.32,0.96-4.12,1.96l0,8.72c0.8,1.08,2.4,1.96,3.92,1.96c1.4,0,2.52-0.64,3.2-1.48c1-1.24,1.44-2.92,1.44-4.88z"/></svg>
